<svg width="194" height="37" viewBox="0 0 194 37" fill="none" xmlns="http://www.w3.org/2000/svg">
<rect width="194" height="37" fill="white"/>
<path d="M46.95 6H55.29C58.17 6 60.57 7.01 62.49 9.03C64.43 11.03 65.4 13.52 65.4 16.5C65.4 19.48 64.43 21.97 62.49 23.97C60.57 25.99 58.17 27 55.29 27H46.95V6ZM51.09 23.04H55.29C57.11 23.04 58.59 22.44 59.73 21.24C60.87 20 61.44 18.42 61.44 16.5C61.44 14.56 60.87 12.99 59.73 11.79C58.59 10.57 57.11 9.96 55.29 9.96H51.09V23.04ZM80.9367 25.14C79.4167 26.66 77.5367 27.42 75.2967 27.42C73.0567 27.42 71.1767 26.66 69.6567 25.14C68.1367 23.62 67.3767 21.74 67.3767 19.5C67.3767 17.28 68.1367 15.41 69.6567 13.89C71.1967 12.35 73.0767 11.58 75.2967 11.58C77.5167 11.58 79.3967 12.35 80.9367 13.89C82.4767 15.43 83.2467 17.3 83.2467 19.5C83.2467 21.72 82.4767 23.6 80.9367 25.14ZM72.3867 22.47C73.1667 23.25 74.1367 23.64 75.2967 23.64C76.4567 23.64 77.4267 23.25 78.2067 22.47C78.9867 21.69 79.3767 20.7 79.3767 19.5C79.3767 18.3 78.9867 17.31 78.2067 16.53C77.4267 15.75 76.4567 15.36 75.2967 15.36C74.1367 15.36 73.1667 15.75 72.3867 16.53C71.6267 17.33 71.2467 18.32 71.2467 19.5C71.2467 20.68 71.6267 21.67 72.3867 22.47ZM97.4592 13.86V12H101.239V26.28C101.239 28.58 100.469 30.35 98.9292 31.59C97.4092 32.81 95.5692 33.42 93.4092 33.42C90.0092 33.42 87.6392 32.2 86.2992 29.76L89.5992 27.87C90.3392 29.27 91.6492 29.97 93.5292 29.97C94.7492 29.97 95.7092 29.65 96.4092 29.01C97.1092 28.37 97.4592 27.46 97.4592 26.28V24.66C96.3192 26.18 94.7192 26.94 92.6592 26.94C90.5392 26.94 88.7592 26.2 87.3192 24.72C85.8992 23.2 85.1892 21.38 85.1892 19.26C85.1892 17.14 85.9092 15.33 87.3492 13.83C88.7892 12.33 90.5592 11.58 92.6592 11.58C94.7192 11.58 96.3192 12.34 97.4592 13.86ZM96.2592 22.23C97.0592 21.45 97.4592 20.46 97.4592 19.26C97.4592 18.06 97.0592 17.09 96.2592 16.35C95.4792 15.57 94.4792 15.18 93.2592 15.18C92.0592 15.18 91.0492 15.57 90.2292 16.35C89.4492 17.09 89.0592 18.06 89.0592 19.26C89.0592 20.46 89.4492 21.45 90.2292 22.23C91.0292 22.99 92.0392 23.37 93.2592 23.37C94.4792 23.37 95.4792 22.99 96.2592 22.23ZM119.329 21.09H108.019C108.519 22.97 109.929 23.91 112.249 23.91C113.729 23.91 114.849 23.41 115.609 22.41L118.729 24.21C117.249 26.35 115.069 27.42 112.189 27.42C109.709 27.42 107.719 26.67 106.219 25.17C104.719 23.67 103.969 21.78 103.969 19.5C103.969 17.26 104.709 15.38 106.189 13.86C107.649 12.34 109.549 11.58 111.889 11.58C114.109 11.58 115.919 12.34 117.319 13.86C118.759 15.38 119.479 17.26 119.479 19.5C119.479 19.92 119.429 20.45 119.329 21.09ZM107.959 18.09H115.609C115.389 17.11 114.939 16.36 114.259 15.84C113.599 15.32 112.809 15.06 111.889 15.06C110.849 15.06 109.989 15.33 109.309 15.87C108.629 16.39 108.179 17.13 107.959 18.09ZM146.15 6H150.41V27H146.3V13.38L140.39 23.13H139.91L134 13.41V27H129.86V6H134.12L140.15 15.93L146.15 6ZM165.543 13.77V12H169.413V27H165.543V25.23C164.383 26.69 162.753 27.42 160.653 27.42C158.653 27.42 156.933 26.66 155.493 25.14C154.073 23.6 153.363 21.72 153.363 19.5C153.363 17.3 154.073 15.43 155.493 13.89C156.933 12.35 158.653 11.58 160.653 11.58C162.753 11.58 164.383 12.31 165.543 13.77ZM158.403 22.56C159.183 23.34 160.173 23.73 161.373 23.73C162.573 23.73 163.563 23.34 164.343 22.56C165.143 21.76 165.543 20.74 165.543 19.5C165.543 18.26 165.143 17.25 164.343 16.47C163.563 15.67 162.573 15.27 161.373 15.27C160.173 15.27 159.183 15.67 158.403 16.47C157.623 17.25 157.233 18.26 157.233 19.5C157.233 20.74 157.623 21.76 158.403 22.56ZM176.792 12V14.58C177.132 13.64 177.712 12.93 178.532 12.45C179.352 11.95 180.292 11.7 181.352 11.7V16.02C180.172 15.86 179.112 16.1 178.172 16.74C177.252 17.36 176.792 18.39 176.792 19.83V27H172.922V12H176.792ZM192.606 12V15.72H189.216V21.96C189.216 22.48 189.346 22.86 189.606 23.1C189.866 23.34 190.246 23.48 190.746 23.52C191.246 23.54 191.866 23.53 192.606 23.49V27C189.986 27.3 188.116 27.06 186.996 26.28C185.896 25.48 185.346 24.04 185.346 21.96V15.72H182.736V12H185.346V8.97L189.216 7.8V12H192.606Z" fill="black"/>
<g clip-path="url(#clip0)">
<path d="M32 30.76C32 31.2692 31.7977 31.7576 31.4376 32.1177C31.0776 32.4777 30.5892 32.68 30.08 32.68H1.92C1.41078 32.68 0.922425 32.4777 0.562355 32.1177C0.202285 31.7576 0 31.2692 0 30.76L0 7.40002H32V30.76Z" fill="#F39C12"/>
<path d="M1.28003 1H30.72V7.4H1.28003V1Z" fill="#E57D22"/>
<path d="M30.72 7.4H28.16V3.56L30.72 1V7.4ZM1.28003 7.4H3.84003V3.56L1.28003 1V7.4Z" fill="#F39C12"/>
<path d="M3.84 3.56V7.4H0L3.84 3.56ZM28.16 3.56V7.4H32L28.16 3.56Z" fill="#F1C40F"/>
<path opacity="0.3" d="M8.31997 15.4C9.20363 15.4 9.91997 14.6837 9.91997 13.8C9.91997 12.9164 9.20363 12.2 8.31997 12.2C7.43632 12.2 6.71997 12.9164 6.71997 13.8C6.71997 14.6837 7.43632 15.4 8.31997 15.4Z" fill="black"/>
<path opacity="0.3" d="M23.6801 15.4C24.5637 15.4 25.2801 14.6837 25.2801 13.8C25.2801 12.9164 24.5637 12.2 23.6801 12.2C22.7964 12.2 22.0801 12.9164 22.0801 13.8C22.0801 14.6837 22.7964 15.4 23.6801 15.4Z" fill="black"/>
<path d="M23.6801 13.8C23.6801 18.0413 20.2417 21.48 16.0001 21.48C11.7585 21.48 8.32007 18.0416 8.32007 13.8" stroke="white" stroke-width="1.92" stroke-miterlimit="10" stroke-linecap="round"/>
</g>
<defs>
<clipPath id="clip0">
<rect width="32" height="32" fill="white" transform="translate(0 1)"/>
</clipPath>
</defs>
</svg>
